# xmcd
#
# Track frame offsets:
#	150
#	19072
#	33795
#	47650
#	65500
#	84330
#	99965
#	117735
#	133002
#	159607
#	177315
#	196045
#	208580
#	221425
#	235425
#
# Disc length: 3324
#
# Revision: 1
# Processed by: cddbd v1.5.1PL0 Copyright (c) Steve Scherf et al.
# Submitted via: ExactAudioCopy v0.95a4
# Normalized: r0:TDELIM( - )
#
DISCID=ca0cfa0f
DTITLE=Various Artist - Rhythm and Soul n°12
DYEAR=2000
DGENRE=Soul
TTITLE0=Marvin Gaye - Got To Give It Up
TTITLE1=Rose Royce - Car Wash
TTITLE2=KC and Sunshine Band - (Shake, Shake, Shake) Shake Your Booty
TTITLE3=Pointer Sisters - Jump (For My Love)
TTITLE4=Evelyn King - Shame
TTITLE5=Kool and The Gang - Ladies Night
TTITLE6=Diana Ross - The Boss
TTITLE7=Barry White - You're The First, The Last, My Everything
TTITLE8=Teddy Pendergrass - Turn Off The Lights
TTITLE9=Boyz II Men - I'll Make Love To You
TTITLE10=Michael Jackson - Ain't No Sunshine
TTITLE11=The Four Tops - I Can't Help Myself
TTITLE12=Martha and The Vandellas - Jimmy Mack
TTITLE13=James Brown - Sexy, Sexy, Sexy
TTITLE14=Etta James - I Just Want To Make Love To You
EXTD=
EXTT0=
EXTT1=
EXTT2=
EXTT3=
EXTT4=
EXTT5=
EXTT6=
EXTT7=
EXTT8=
EXTT9=
EXTT10=
EXTT11=
EXTT12=
EXTT13=
EXTT14=
PLAYORDER=
